# xmcd
#
# Track frame offsets:
#	150
#	13937
#	23415
#	40657
#	53198
#	72280
#	89547
#	104646
#	120422
#	133936
#	156591
#	172367
#
# Disc length: 2549 seconds
# Revision: 1
# Processed by: cddbd v1.5.2PL0 Copyright (c) Steve Scherf et al.
# Submitted via: dBpowerAMP V12.0
#
DISCID=aa09f30c
DTITLE=Mountain Faith - That Which Matters
DYEAR=2015
DGENRE=Country
TTITLE0=Someone Prayed
TTITLE1=Been There Done That
TTITLE2=Brother John
TTITLE3=Absent From The Body
TTITLE4=So In Love With Jesus
TTITLE5=Run To Meet Him
TTITLE6=Emily (It's Love)
TTITLE7=Condemnation
TTITLE8=Let My Life Make a Difference
TTITLE9=He's In Control
TTITLE10=That Which Matters
TTITLE11=There Is a God
EXTD=
EXTT0=
EXTT1=
EXTT2=
EXTT3=
EXTT4=
EXTT5=
EXTT6=
EXTT7=
EXTT8=
EXTT9=
EXTT10=
EXTT11=
PLAYORDER=
